<?xml version="1.0" encoding="UTF-8"?>
<svg id="_Слой_1" data-name="Слой_1" xmlns="http://www.w3.org/2000/svg" version="1.1" viewBox="0 0 100 100">
  <!-- Generator: Adobe Illustrator 29.6.1, SVG Export Plug-In . SVG Version: 2.1.1 Build 9)  -->
  <path d="M79.8,10c22.4,16.4,26.8,47.9,9.9,70-18.4,24-53.4,26.4-74.9,5.1C-7.2,63.4-4.3,27.3,20.9,9.4s41.7-12,58.9.6ZM45.8,6.9c-1.5,0-3,.3-4.5.6-10.2,2.2-21.3,8.7-27.1,17.6s-.5.7-.4.9c3.3,3.1,6.7,6,10.5,8.6.2,0,.5-.3.7-.4,1-.5,2.3-1.1,3.4-.9.6-1.4,1.2-2.9,1.9-4.3,3.9-8.1,9.1-15.6,15.4-22ZM56.1,7.2h-1.9c-8.7,7.6-15.3,17.2-20.2,27.7.2.5.9,1,1.2,1.5.5.7.8,1.9,1,2.7s0,.8.2,1,1.5.5,1.7.6c1.4.4,3.1.9,4.5,1.2s1.5.3,2.3.3c0-.5,0-1,0-1.4.9-10.1,4-19.9,8.6-28.9l2.6-4.7ZM73.9,13.8c-2-1.3-4.2-2.5-6.5-3.3,0,.3-.1.5-.2.7-2,7.6-2.5,16.6-1.2,24.3.1.6.3,1.3.4,1.9h.1c1.6.2,3.3.7,4.6,1.8s.9,1.3,1.3,1.3,1.7-.5,2.1-.6c4.4-1.5,9-3.9,12.8-6.6s1.3-1.1,2-1.5c0-.2-.7-1.5-.8-1.8-3.3-6.2-8.8-12.2-14.8-16ZM50.7,43.1h8.3c.4,0,.3-.6.4-.9.2-.6.6-1.2,1-1.6s.6-.4.7-.7c-.3-1.2-.6-2.5-.8-3.7-1.6-8.8-.8-16.6,1-25.2s.1-.4,0-.4c-2.9,4.6-5.4,9.5-7.2,14.7s-2.8,9.9-3.3,14.6,0,2.1-.2,3v.2ZM10.8,31.4c0,0-.3-.3-.4-.2-.9,2.3-1.9,4.6-2.5,7s-1.3,6.1-1.5,8.9,0,3.7,0,5.5c0,.2,1.7,1.5,2,1.8,1.6,1.3,3.5,2.6,5.2,3.7,2.8,1.8,5.8,3.5,8.9,4.7,0-3.8,0-7.5.6-11.2l.9-4.7c-2.3-1.4-3.5-4-3.1-6.6s.3-.5.2-.7c-2.7-1.7-5.4-3.6-7.9-5.7s-1.7-1.7-2.6-2.4ZM91.8,37.6l-3.4,2.3c-4.6,2.7-9.4,5-14.6,6.3,0,1.1-.5,2.6-1.2,3.4s-1.1,1-1.1,1.1c0,.1,0,.2,0,.3,3.2,5.4,7.1,10.4,11.7,14.7.2,0,1-.2,1.2-.4,2.1-.8,4.4-2,6.4-3s.8-.5,1.2-.7c1.8-6.2,1.9-12.9,1-19.3l-1.2-4.7ZM44.9,69.8c.2-.4.5-.9.8-1.3s1.1-.9,1.1-1.2l-1.2-4.9c-.4-2.8-.9-5.6-1-8.5s0-3.7,0-5.5l-.2-.2c-3.4-.6-6.7-1.5-10-2.4-.7,1.1-1.9,1.8-3.1,2.2s-1.1,0-1.2.4c-.7,3.5-1.2,7-1.4,10.5s-.1.4-.1.6v5.8c0,.2,2.7,1.1,3.1,1.2,2.9,1,5.8,1.7,8.7,2.4l4.5.9ZM60.3,49h-9.8c0,1.5,0,3.1,0,4.7.1,2.9.6,5.9,1.2,8.7s.4,2.2.8,3.3c2.7.4,5.2,2,5.8,4.8.1.1,2,.1,2.4,0,3.9-.2,7.8-.9,11.7-1.5l4.5-1.2c-.7-1-1.6-1.8-2.4-2.7-3.4-3.9-6.4-8.2-8.7-12.8-2.1-.3-4.4-1.5-5.4-3.4ZM8.1,61.3c-.2-.1-.3-.2-.5-.3,0,0,0,0,0,.1,3,9.6,8.7,18,16.8,24,.1,0,.9.7,1,.6-.3-1-.7-2.1-1-3.1-.8-3.1-1.4-6.8-1.7-9.9s0-3.2-.2-3.4c-5.1-2.1-10-4.7-14.4-7.9ZM57.5,92.6l-3.8-6.1-2.7-5.5c-1.2-.2-2.3-.3-3.4-1-1.7-.9-2.6-2.4-3.2-4.2-3.7-.6-7.4-1.4-11-2.4s-3.1-1-4.6-1.5c-.1.7.1,1.2.2,1.8.5,4.3,1.4,8.6,2.7,12.8s.6,2.1,1,2.9.2.3.3.5c5.2,2.1,10.5,3.2,16.2,3.3s5.4,0,7.8-.5.4,0,.5,0ZM82.7,73.2c-.2-.1-1-.8-1-.8-6,2.3-12.4,3.6-18.8,4-.2,0-.4,0-.6.1-1.2,0-2.5,0-3.7.1-.2,0-.7,1.1-.9,1.4s-.9.9-.9,1c1.3,2.7,2.8,5.4,4.4,7.9s1.5,2.3,2.3,3.4.4.7.7.7c8.5-2.9,16.1-8.4,21.4-15.7v-.3c-1-.5-1.8-1.2-2.7-1.9Z"/>
</svg>